<?xml version="1.0" encoding="UTF-8" standalone="no"?>
<svg
   xmlns:dc="http://purl.org/dc/elements/1.1/"
   xmlns:cc="http://creativecommons.org/ns#"
   xmlns:rdf="http://www.w3.org/1999/02/22-rdf-syntax-ns#"
   xmlns:svg="http://www.w3.org/2000/svg"
   xmlns="http://www.w3.org/2000/svg"
   xmlns:sodipodi="http://sodipodi.sourceforge.net/DTD/sodipodi-0.dtd"
   xmlns:inkscape="http://www.inkscape.org/namespaces/inkscape"
   width="250"
   height="250"
   viewBox="0 0 66.145 66.146668"
   version="1.1"
   id="svg8"
   sodipodi:docname="rx.min.svg"
   inkscape:version="0.92.3 (2405546, 2018-03-11)">
  <metadata
     id="metadata930">
    <rdf:RDF>
      <cc:Work
         rdf:about="">
        <dc:format>image/svg+xml</dc:format>
        <dc:type
           rdf:resource="http://purl.org/dc/dcmitype/StillImage" />
        <dc:title></dc:title>
      </cc:Work>
    </rdf:RDF>
  </metadata>
  <defs
     id="defs928" />
  <sodipodi:namedview
     pagecolor="#ffffff"
     bordercolor="#666666"
     borderopacity="1"
     objecttolerance="10"
     gridtolerance="10"
     guidetolerance="10"
     inkscape:pageopacity="0"
     inkscape:pageshadow="2"
     inkscape:window-width="1920"
     inkscape:window-height="1001"
     id="namedview926"
     showgrid="false"
     inkscape:zoom="1.5733333"
     inkscape:cx="50"
     inkscape:cy="75"
     inkscape:window-x="-9"
     inkscape:window-y="-9"
     inkscape:window-maximized="1"
     inkscape:current-layer="svg8" />
  <g
     transform="matrix(0.67371071,0,0,0.67371071,47.320389,-133.24537)"
     id="g832">
    <path
       inkscape:connector-curvature="0"
       id="path824"
       d="m 14.81,285.536 c -0.467,0.85 -0.931,1.622 -1.391,2.316 -0.47,0.71 -0.945,1.317 -1.424,1.82 -0.478,0.496 -0.97,0.881 -1.474,1.155 -0.504,0.273 -1.03,0.41 -1.576,0.41 -0.3,0 -0.633,-0.034 -1,-0.103 a 7.825,7.825 0 0 1 -1.23,-0.359 c -0.257,0.274 -0.45,0.56 -0.578,0.86 -0.128,0.298 -0.192,0.593 -0.192,0.884 0,0.248 0.051,0.487 0.154,0.718 0.094,0.222 0.235,0.418 0.423,0.589 0.188,0.171 0.423,0.308 0.705,0.41 0.282,0.103 0.61,0.154 0.987,0.154 0.615,0 1.222,-0.18 1.82,-0.538 0.607,-0.36 1.21,-0.86 1.808,-1.5 a 18.069,18.069 0 0 0 1.782,-2.32 c 0.598,-0.898 1.2,-1.885 1.807,-2.961 l 0.238,-0.392 a 41.033,41.033 0 0 1 -0.858,-1.143 z"
       style="font-style:normal;font-variant:normal;font-weight:bold;font-stretch:normal;font-size:medium;line-height:1.25;font-family:Gabriola;-inkscape-font-specification:'Gabriola Bold';letter-spacing:0px;word-spacing:0px;fill:#f9f9f9;fill-opacity:1;stroke:none;stroke-width:0.27348629" />
    <g
       transform="matrix(1.0385,0,0,1.0385,-63.885,208.392)"
       id="g828"
       style="font-style:normal;font-variant:normal;font-weight:bold;font-stretch:normal;font-size:50.79999924px;line-height:1.25;font-family:Gabriola;-inkscape-font-specification:'Gabriola Bold';letter-spacing:0px;word-spacing:0px;fill:#f9f9f9;fill-opacity:1;stroke:none;stroke-width:0.26458332"
       aria-label="R">
      <path
         inkscape:connector-curvature="0"
         id="path826"
         style="fill:#f9f9f9;stroke-width:0.26458332"
         d="m 65.817,53.763 q 0,-0.521 -0.087,-0.893 -0.087,-0.372 -0.31,-0.608 -0.21,-0.236 -0.595,-0.347 -0.385,-0.112 -0.98,-0.112 -0.819,0 -2.096,0.186 L 61.6,50.885 q 1.154,-0.21 2.518,-0.434 1.377,-0.223 2.815,-0.41 1.451,-0.185 2.902,-0.297 1.464,-0.124 2.803,-0.124 1.799,0 3.336,0.323 1.538,0.31 2.667,1.054 1.129,0.732 1.774,1.935 0.644,1.203 0.644,2.989 0,1.65 -0.545,3.026 -0.534,1.364 -1.526,2.443 -0.98,1.079 -2.381,1.848 -1.401,0.769 -3.125,1.215 1.29,2.208 2.344,3.882 1.054,1.675 1.934,2.94 0.881,1.252 1.613,2.158 0.731,0.893 1.376,1.55 0.509,0.533 0.955,0.905 0.447,0.36 0.856,0.583 0.422,0.224 0.844,0.323 0.421,0.099 0.88,0.099 0.496,0 0.943,-0.1 0.446,-0.098 0.98,-0.297 l 0.347,1.017 q -1.575,0.72 -2.79,1.067 -1.216,0.36 -2.035,0.36 -0.41,0 -0.781,-0.1 -0.372,-0.087 -0.732,-0.273 -0.36,-0.186 -0.72,-0.471 -0.359,-0.298 -0.768,-0.695 -0.67,-0.632 -1.55,-1.711 -0.881,-1.091 -1.997,-2.716 -1.104,-1.637 -2.456,-3.87 -1.352,-2.232 -2.976,-5.16 l 0.024,-0.16 q 2.196,-0.087 3.709,-0.608 1.513,-0.52 2.443,-1.414 0.942,-0.893 1.364,-2.12 0.422,-1.24 0.422,-2.766 0,-2.927 -1.538,-4.378 -1.538,-1.452 -4.552,-1.452 -0.645,0 -1.228,0.05 -0.582,0.05 -1.29,0.137 -0.024,0.954 -0.074,2.554 -0.037,1.6 -0.099,3.684 -0.05,2.071 -0.124,4.552 -0.074,2.468 -0.149,5.171 -0.074,2.692 -0.161,5.544 l -0.174,5.668 -2.94,0.372 -0.222,-0.025 q 0.148,-3.56 0.273,-6.747 0.124,-3.187 0.198,-6.2 0.087,-3.027 0.136,-5.979 0.05,-2.964 0.05,-6.064 z" />
    </g>
    <path
       inkscape:connector-curvature="0"
       id="path830"
       d="m 24.025,274.911 c -0.598,0 -1.183,0.175 -1.756,0.526 -0.564,0.342 -1.124,0.829 -1.68,1.461 -0.546,0.624 -1.093,1.385 -1.64,2.282 a 43.595,43.595 0 0 0 -1.629,2.961 l -0.16,0.263 c 0.288,0.409 0.566,0.794 0.83,1.148 0.375,-0.74 0.75,-1.432 1.126,-2.064 a 13.15,13.15 0 0 1 1.281,-1.795 c 0.436,-0.513 0.885,-0.91 1.347,-1.192 a 2.742,2.742 0 0 1 1.935,-0.398 c 0.171,0.017 0.342,0.06 0.513,0.129 0.17,0.06 0.338,0.149 0.5,0.268 0.17,0.112 0.333,0.261 0.487,0.45 h 0.103 c 0.367,-0.249 0.64,-0.548 0.82,-0.898 0.18,-0.36 0.27,-0.718 0.27,-1.077 0,-0.265 -0.052,-0.521 -0.154,-0.77 a 1.677,1.677 0 0 0 -0.45,-0.666 2.153,2.153 0 0 0 -0.73,-0.448 c -0.29,-0.12 -0.628,-0.18 -1.013,-0.18 z"
       style="font-style:normal;font-variant:normal;font-weight:bold;font-stretch:normal;font-size:medium;line-height:1.25;font-family:Gabriola;-inkscape-font-specification:'Gabriola Bold';letter-spacing:0px;word-spacing:0px;fill:#f9f9f9;fill-opacity:1;stroke:none;stroke-width:0.27348629" />
  </g>
  <g
     id="g842"
     transform="matrix(0.67371071,0,0,0.67371071,0.99916933,-174.05414)">
    <path
       style="font-style:normal;font-variant:normal;font-weight:bold;font-stretch:normal;font-size:medium;line-height:1.25;font-family:Gabriola;-inkscape-font-specification:'Gabriola Bold';letter-spacing:0px;word-spacing:0px;fill:#f9f9f9;fill-opacity:1;stroke:none;stroke-width:0.27348629"
       d="m 14.81,285.536 c -0.467,0.85 -0.931,1.622 -1.391,2.316 -0.47,0.71 -0.945,1.317 -1.424,1.82 -0.478,0.496 -0.97,0.881 -1.474,1.155 -0.504,0.273 -1.03,0.41 -1.576,0.41 -0.3,0 -0.633,-0.034 -1,-0.103 a 7.825,7.825 0 0 1 -1.23,-0.359 c -0.257,0.274 -0.45,0.56 -0.578,0.86 -0.128,0.298 -0.192,0.593 -0.192,0.884 0,0.248 0.051,0.487 0.154,0.718 0.094,0.222 0.235,0.418 0.423,0.589 0.188,0.171 0.423,0.308 0.705,0.41 0.282,0.103 0.61,0.154 0.987,0.154 0.615,0 1.222,-0.18 1.82,-0.538 0.607,-0.36 1.21,-0.86 1.808,-1.5 a 18.069,18.069 0 0 0 1.782,-2.32 c 0.598,-0.898 1.2,-1.885 1.807,-2.961 l 0.238,-0.392 a 41.033,41.033 0 0 1 -0.858,-1.143 z"
       id="path834"
       inkscape:connector-curvature="0" />
    <g
       aria-label="R"
       style="font-style:normal;font-variant:normal;font-weight:bold;font-stretch:normal;font-size:50.79999924px;line-height:1.25;font-family:Gabriola;-inkscape-font-specification:'Gabriola Bold';letter-spacing:0px;word-spacing:0px;fill:#f9f9f9;fill-opacity:1;stroke:none;stroke-width:0.26458332"
       id="g838"
       transform="matrix(1.0385,0,0,1.0385,-63.885,208.392)">
      <path
         d="m 65.817,53.763 q 0,-0.521 -0.087,-0.893 -0.087,-0.372 -0.31,-0.608 -0.21,-0.236 -0.595,-0.347 -0.385,-0.112 -0.98,-0.112 -0.819,0 -2.096,0.186 L 61.6,50.885 q 1.154,-0.21 2.518,-0.434 1.377,-0.223 2.815,-0.41 1.451,-0.185 2.902,-0.297 1.464,-0.124 2.803,-0.124 1.799,0 3.336,0.323 1.538,0.31 2.667,1.054 1.129,0.732 1.774,1.935 0.644,1.203 0.644,2.989 0,1.65 -0.545,3.026 -0.534,1.364 -1.526,2.443 -0.98,1.079 -2.381,1.848 -1.401,0.769 -3.125,1.215 1.29,2.208 2.344,3.882 1.054,1.675 1.934,2.94 0.881,1.252 1.613,2.158 0.731,0.893 1.376,1.55 0.509,0.533 0.955,0.905 0.447,0.36 0.856,0.583 0.422,0.224 0.844,0.323 0.421,0.099 0.88,0.099 0.496,0 0.943,-0.1 0.446,-0.098 0.98,-0.297 l 0.347,1.017 q -1.575,0.72 -2.79,1.067 -1.216,0.36 -2.035,0.36 -0.41,0 -0.781,-0.1 -0.372,-0.087 -0.732,-0.273 -0.36,-0.186 -0.72,-0.471 -0.359,-0.298 -0.768,-0.695 -0.67,-0.632 -1.55,-1.711 -0.881,-1.091 -1.997,-2.716 -1.104,-1.637 -2.456,-3.87 -1.352,-2.232 -2.976,-5.16 l 0.024,-0.16 q 2.196,-0.087 3.709,-0.608 1.513,-0.52 2.443,-1.414 0.942,-0.893 1.364,-2.12 0.422,-1.24 0.422,-2.766 0,-2.927 -1.538,-4.378 -1.538,-1.452 -4.552,-1.452 -0.645,0 -1.228,0.05 -0.582,0.05 -1.29,0.137 -0.024,0.954 -0.074,2.554 -0.037,1.6 -0.099,3.684 -0.05,2.071 -0.124,4.552 -0.074,2.468 -0.149,5.171 -0.074,2.692 -0.161,5.544 l -0.174,5.668 -2.94,0.372 -0.222,-0.025 q 0.148,-3.56 0.273,-6.747 0.124,-3.187 0.198,-6.2 0.087,-3.027 0.136,-5.979 0.05,-2.964 0.05,-6.064 z"
         style="fill:#f9f9f9;stroke-width:0.26458332"
         id="path836"
         inkscape:connector-curvature="0" />
    </g>
    <path
       style="font-style:normal;font-variant:normal;font-weight:bold;font-stretch:normal;font-size:medium;line-height:1.25;font-family:Gabriola;-inkscape-font-specification:'Gabriola Bold';letter-spacing:0px;word-spacing:0px;fill:#f9f9f9;fill-opacity:1;stroke:none;stroke-width:0.27348629"
       d="m 24.025,274.911 c -0.598,0 -1.183,0.175 -1.756,0.526 -0.564,0.342 -1.124,0.829 -1.68,1.461 -0.546,0.624 -1.093,1.385 -1.64,2.282 a 43.595,43.595 0 0 0 -1.629,2.961 l -0.16,0.263 c 0.288,0.409 0.566,0.794 0.83,1.148 0.375,-0.74 0.75,-1.432 1.126,-2.064 a 13.15,13.15 0 0 1 1.281,-1.795 c 0.436,-0.513 0.885,-0.91 1.347,-1.192 a 2.742,2.742 0 0 1 1.935,-0.398 c 0.171,0.017 0.342,0.06 0.513,0.129 0.17,0.06 0.338,0.149 0.5,0.268 0.17,0.112 0.333,0.261 0.487,0.45 h 0.103 c 0.367,-0.249 0.64,-0.548 0.82,-0.898 0.18,-0.36 0.27,-0.718 0.27,-1.077 0,-0.265 -0.052,-0.521 -0.154,-0.77 a 1.677,1.677 0 0 0 -0.45,-0.666 2.153,2.153 0 0 0 -0.73,-0.448 c -0.29,-0.12 -0.628,-0.18 -1.013,-0.18 z"
       id="path840"
       inkscape:connector-curvature="0" />
  </g>
</svg>
